<svg width="250" height="250" xmlns="http://www.w3.org/2000/svg" xml:space="preserve">
    <rect id="svg_4" height="100%" width="100%" y="0" x="0" fill="#10a37f"/>
    <g>
        <path fill="#ffffff" d="m125,50.41918a47.94481,47.94481 0 0 0 -47.94481,47.94481c0,18.78371 15.9816,37.29041 15.9816,58.59921l0,21.30881l9.18409,18.36819a5.3272,5.3272 0 0 0 4.76252,2.94062l36.03319,0a5.3272,5.3272 0 0 0 4.76252,-2.94062l9.18409,-18.36819l0,-21.30881c0,-21.30881 15.9816,-39.8155 15.9816,-58.59921a47.94481,47.94481 0 0 0 -47.94481,-47.94481zm-37.29041,47.94481c0,-20.563 16.72741,-37.29041 37.29041,-37.29041s37.29041,16.72741 37.29041,37.29041c0,6.96798 -3.30286,14.92682 -6.79751,23.35445c-3.10043,7.47939 -6.50984,15.68328 -8.16127,24.59036l-44.66326,0c-1.65143,-8.90708 -5.06084,-17.11097 -8.16127,-24.59036c-3.49464,-8.42763 -6.79751,-16.38647 -6.79751,-23.35445zm52.01479,90.56242l-29.44877,0l-5.3272,-10.6544l40.10317,0l-5.3272,10.6544zm6.58442,-21.30881l-42.61761,0l0,-10.6544l42.61761,0l0,10.6544z"/>
        <path fill="#ffffff" d="m125,71.72799a26.63601,26.63601 0 0 0 -26.63601,26.63601l10.6544,0c0,-8.81119 7.17041,-15.9816 15.9816,-15.9816l0,-10.6544zm53.14416,2.09892l18.71979,-10.80356a5.3272,5.3272 0 0 0 -5.3272,-9.22671l-18.71979,10.81422c2.04565,2.88734 3.82493,5.97712 5.3272,9.21606zm-125.0081,-10.80356l18.71979,10.80356c1.50227,-3.24959 3.28156,-6.32872 5.3272,-9.22671l-18.71979,-10.80356a5.3272,5.3272 0 0 0 -5.3272,9.22671zm146.44476,30.01345l-16.24796,0c0.15982,1.75798 0.26636,3.52661 0.26636,5.3272c0,1.81125 -0.26636,3.55857 -0.46879,5.3272l16.4504,0a5.3272,5.3272 0 0 0 0,-10.6544zm-2.71687,40.66785l-18.83698,-10.87814c-0.91628,2.37593 -1.88583,4.73055 -2.85538,7.06387l-1.18264,2.90865l17.5478,10.13234a5.3272,5.3272 0 0 0 5.3272,-9.22671zm-130.46316,-35.34065c0,-1.80059 0.10654,-3.56922 0.26636,-5.3272l-16.24796,0a5.3272,5.3272 0 0 0 0,10.6544l16.4504,0c-0.20243,-1.76863 -0.46879,-3.51595 -0.46879,-5.3272zm8.42763,31.52638c-0.96955,-2.33331 -1.9391,-4.68794 -2.86603,-7.06387l-18.82633,10.87814a5.3272,5.3272 0 0 0 5.3272,9.22671l17.5478,-10.13234l-1.18264,-2.90865z"/>
    </g>
</svg>
